<svg xmlns="http://www.w3.org/2000/svg" xmlns:xlink="http://www.w3.org/1999/xlink" width="1080" zoomAndPan="magnify" viewBox="0 0 810 809.999993" height="1080" preserveAspectRatio="xMidYMid meet" version="1.0"><defs><g/></defs><g fill="#000000" fill-opacity="1"><g transform="translate(29.373538, 508.071145)"><g><path d="M 125.359375 -57.25 C 125.359375 -38.78125 118.816406 -24.175781 105.734375 -13.4375 C 92.660156 -2.707031 74.953125 2.65625 52.609375 2.65625 C 33.085938 2.65625 17.363281 -1.320312 5.4375 -9.28125 L 5.4375 -45.578125 C 22.476562 -36.035156 38.289062 -31.265625 52.875 -31.265625 C 62.769531 -31.265625 70.5 -33.140625 76.0625 -36.890625 C 81.625 -40.648438 84.40625 -45.800781 84.40625 -52.34375 C 84.40625 -56.132812 83.804688 -59.46875 82.609375 -62.34375 C 81.421875 -65.21875 79.722656 -67.890625 77.515625 -70.359375 C 75.304688 -72.835938 69.828125 -77.34375 61.078125 -83.875 C 48.890625 -92.625 40.320312 -101.28125 35.375 -109.84375 C 30.425781 -118.414062 27.953125 -127.648438 27.953125 -137.546875 C 27.953125 -148.941406 30.691406 -159.117188 36.171875 -168.078125 C 41.648438 -177.046875 49.445312 -184.023438 59.5625 -189.015625 C 69.675781 -194.015625 81.316406 -196.515625 94.484375 -196.515625 C 113.648438 -196.515625 131.179688 -192.140625 147.078125 -183.390625 L 132.640625 -152.515625 C 118.859375 -159.054688 106.140625 -162.328125 94.484375 -162.328125 C 87.148438 -162.328125 81.140625 -160.335938 76.453125 -156.359375 C 71.773438 -152.378906 69.4375 -147.125 69.4375 -140.59375 C 69.4375 -135.195312 70.890625 -130.488281 73.796875 -126.46875 C 76.710938 -122.457031 83.253906 -117.140625 93.421875 -110.515625 C 104.109375 -103.441406 112.101562 -95.644531 117.40625 -87.125 C 122.707031 -78.601562 125.359375 -68.644531 125.359375 -57.25 Z M 125.359375 -57.25 "/></g></g></g><g fill="#000000" fill-opacity="1"><g transform="translate(150.892205, 508.071145)"><g><path d="M 150.390625 0 L 109.84375 0 L 127.609375 -83.609375 L 65.1875 -83.609375 L 47.4375 0 L 7.015625 0 L 47.96875 -193.71875 L 88.515625 -193.71875 L 72.484375 -117.796875 L 134.890625 -117.796875 L 150.921875 -193.71875 L 191.34375 -193.71875 Z M 150.390625 0 "/></g></g></g><g fill="#000000" fill-opacity="1"><g transform="translate(318.656301, 508.071145)"><g><path d="M 111.578125 -46.109375 L 48.890625 -46.109375 L 26.109375 0 L -16.296875 0 L 85.203125 -194.515625 L 134.625 -194.515625 L 154.109375 0 L 114.75 0 Z M 109.578125 -80.5625 L 106.140625 -126.9375 C 105.253906 -138.507812 104.8125 -149.6875 104.8125 -160.46875 L 104.8125 -165.234375 C 100.925781 -154.628906 96.113281 -143.410156 90.375 -131.578125 L 65.453125 -80.5625 Z M 109.578125 -80.5625 "/></g></g></g><g fill="#000000" fill-opacity="1"><g transform="translate(466.809155, 508.071145)"><g><path d="M 175.3125 -120.453125 C 175.3125 -95.710938 170.976562 -74.222656 162.3125 -55.984375 C 153.65625 -37.742188 141.132812 -23.851562 124.75 -14.3125 C 108.363281 -4.769531 89.039062 0 66.78125 0 L 7.015625 0 L 47.96875 -193.71875 L 100.4375 -193.71875 C 124.289062 -193.71875 142.734375 -187.398438 155.765625 -174.765625 C 168.796875 -162.140625 175.3125 -144.035156 175.3125 -120.453125 Z M 68.640625 -33.921875 C 81.710938 -33.921875 93.109375 -37.273438 102.828125 -43.984375 C 112.546875 -50.703125 120.140625 -60.578125 125.609375 -73.609375 C 131.085938 -86.640625 133.828125 -101.546875 133.828125 -118.328125 C 133.828125 -131.929688 130.625 -142.285156 124.21875 -149.390625 C 117.820312 -156.503906 108.613281 -160.0625 96.59375 -160.0625 L 81.359375 -160.0625 L 54.59375 -33.921875 Z M 68.640625 -33.921875 "/></g></g></g><g fill="#000000" fill-opacity="1"><g transform="translate(628.212848, 508.071145)"><g><path d="M 83.078125 -115.28125 L 132.640625 -193.71875 L 177.953125 -193.71875 L 96.0625 -74.078125 L 80.296875 0 L 40.15625 0 L 55.921875 -74.078125 L 24.640625 -193.71875 L 65.984375 -193.71875 Z M 83.078125 -115.28125 "/></g></g></g></svg>
